<?xml version="1.0" ?><svg height="32" id="svg2" version="1.1" viewBox="0 0 32 32.000001" width="32" xmlns="http://www.w3.org/2000/svg" xmlns:cc="http://creativecommons.org/ns#" xmlns:dc="http://purl.org/dc/elements/1.1/" xmlns:inkscape="http://www.inkscape.org/namespaces/inkscape" xmlns:rdf="http://www.w3.org/1999/02/22-rdf-syntax-ns#" xmlns:sodipodi="http://sodipodi.sourceforge.net/DTD/sodipodi-0.dtd" xmlns:svg="http://www.w3.org/2000/svg"><defs id="defs4"/><g id="layer1" transform="translate(0,-1020.3622)"><path d="M 8.765625 4.1523438 C 8.1083075 4.1473609 7.4604528 4.2650219 6.8554688 4.4980469 C 6.0861285 4.7933262 5.3897651 5.2749314 4.8222656 5.9082031 A 0.49843517 0.50167009 29.998982 0 0 4.6210938 6.4863281 A 0.49843517 0.50167009 29.998982 0 0 5.0117188 6.8320312 C 5.7567832 7.1109956 6.3971623 7.5920598 6.8789062 8.2070312 C 5.6533183 9.1875355 4.6756904 10.354133 4.0195312 11.652344 L 3.5625 11.652344 C 1.6321486 11.652344 0.0625 13.221944 0.0625 15.152344 L 0.0625 17.152344 C 0.0625 19.082644 1.6321486 20.652344 3.5625 20.652344 L 4.7402344 20.652344 C 5.6514296 21.948593 6.8917223 23.063935 8.3789062 23.935547 L 8.3789062 27.5 A 0.50005 0.50005 0 0 0 8.8789062 28 L 12.878906 28 A 0.50005 0.50005 0 0 0 13.378906 27.5 L 13.378906 25.71875 C 15.712669 26.112102 18.129776 25.986574 20.378906 25.353516 L 20.378906 27.5 A 0.50005 0.50005 0 0 0 20.878906 28 L 24.878906 28 A 0.50005 0.50005 0 0 0 25.378906 27.5 L 25.378906 22.800781 C 28.61553 20.135967 29.768709 16.278757 28.578125 12.78125 C 30.005388 11.807679 30.439073 10.630918 30.490234 9.5683594 C 31.237106 8.8483594 31.863351 7.7386719 31.9375 5.7011719 A 0.50005 0.50005 0 0 0 31.398438 5.1777344 A 0.50005 0.50005 0 0 0 30.9375 5.6660156 C 30.89491 6.8365156 30.649202 7.5775562 30.373047 8.1601562 C 30.138472 7.7031562 29.804848 7.3216812 29.308594 7.2382812 C 28.999149 7.1862813 28.65912 7.2652312 28.382812 7.4570312 C 28.106506 7.6487313 27.884646 7.9371469 27.705078 8.3105469 A 0.50005 0.50005 0 0 0 27.685547 8.3554688 C 27.455565 8.9870687 27.586967 9.6407031 27.992188 10.033203 C 28.365029 10.394403 28.930403 10.458284 29.474609 10.333984 C 29.261698 10.820523 28.860156 11.336918 28.193359 11.826172 C 27.920121 11.251275 27.584394 10.691127 27.175781 10.152344 C 24.84769 7.0825438 20.829467 5.28515 16.574219 5.15625 C 15.166906 5.1135866 13.734519 5.2532358 12.328125 5.5898438 C 11.538876 4.8426273 10.529383 4.3484718 9.4257812 4.1992188 C 9.2056204 4.1694688 8.9847308 4.1540047 8.765625 4.1523438 z M 8.7519531 5.1523438 C 8.9292659 5.1537713 9.1067997 5.1672813 9.2851562 5.1914062 C 10.712018 5.3844062 11.9502 6.291075 12.576172 7.609375 A 0.49843517 0.50167009 29.998982 1 0 13.476562 7.1738281 C 13.356836 6.9216785 13.212998 6.6874413 13.058594 6.4609375 C 18.214327 5.4141903 23.666774 7.1817004 26.378906 10.757812 C 29.125875 14.379948 28.493619 18.888415 24.818359 21.962891 A 0.50005 0.50005 0 0 0 24.378906 22.46875 L 24.378906 27 L 21.378906 27 L 21.378906 24.71875 A 0.50005 0.50005 0 0 0 20.898438 24.185547 L 20.898438 24.1875 A 0.50005 0.50005 0 0 0 20.714844 24.212891 C 18.298568 25.010691 15.609255 25.166344 13.068359 24.652344 A 0.50026694 0.50026694 0 0 0 12.634766 24.769531 A 0.50005 0.50005 0 0 0 12.632812 24.771484 A 0.50005 0.50005 0 0 0 12.378906 25.214844 L 12.378906 27 L 9.3789062 27 L 9.3789062 23.683594 A 0.50005 0.50005 0 0 0 9.1132812 23.232422 A 0.50036081 0.50036081 0 0 0 9.0078125 23.152344 C 7.5501994 22.321394 6.3588219 21.245219 5.5097656 20.015625 A 0.50005 0.50005 0 0 0 5.0214844 19.652344 L 3.5625 19.652344 C 2.1688514 19.652344 1.0625 18.545944 1.0625 17.152344 L 1.0625 15.152344 C 1.0625 13.758644 2.1688514 12.652344 3.5625 12.652344 L 4.3203125 12.652344 A 0.50005 0.50005 0 0 0 4.8085938 12.287109 A 0.50005 0.50005 0 0 0 4.8359375 12.234375 C 5.4039547 11.057526 6.2858786 9.986786 7.4042969 9.0703125 C 7.5084947 9.2968273 7.6009842 9.5295296 7.6660156 9.7753906 A 0.49843517 0.50167009 29.998982 1 0 8.6308594 9.5136719 C 8.246668 8.0611675 7.2743915 6.8580719 5.9765625 6.171875 C 6.7530528 5.5104988 7.7347112 5.144154 8.7519531 5.1523438 z M 29.142578 8.2226562 L 29.142578 8.2246094 C 29.252722 8.2436094 29.48401 8.417175 29.609375 8.796875 C 29.637775 8.882875 29.570348 9.0359188 29.585938 9.1367188 C 29.493028 9.1947187 29.389172 9.3786969 29.306641 9.4042969 C 29.010417 9.4962969 28.799744 9.4215 28.6875 9.3125 C 28.578819 9.2072 28.517 9.0411969 28.626953 8.7167969 C 28.745932 8.4825969 28.867373 8.3368437 28.953125 8.2773438 C 29.043895 8.2143437 29.087506 8.2136562 29.142578 8.2226562 z M 9.0625 12.152344 C 8.5161376 12.152344 8.0625 12.605944 8.0625 13.152344 C 8.0625 13.698644 8.5161376 14.152344 9.0625 14.152344 C 9.6088624 14.152344 10.0625 13.698644 10.0625 13.152344 C 10.0625 12.605944 9.6088624 12.152344 9.0625 12.152344 z M 18.244141 12.572266 C 18.04766 12.572266 17.851727 12.597484 17.660156 12.646484 C 16.893875 12.846284 16.221757 13.417053 15.748047 14.251953 C 15.513491 14.665375 15.337167 15.116268 15.21875 15.587891 L 14.240234 15.587891 L 13.814453 16.587891 L 15.066406 16.587891 C 15.040337 16.921311 15.040535 17.254667 15.068359 17.587891 L 14.140625 17.587891 L 13.714844 18.587891 L 15.230469 18.587891 C 15.348762 19.047128 15.519185 19.489193 15.748047 19.892578 C 16.221757 20.727478 16.893875 21.3002 17.660156 21.5 C 18.426437 21.6998 19.260927 21.490022 19.933594 20.919922 L 20.314453 20.595703 L 19.666016 19.835938 L 19.285156 20.160156 C 18.820056 20.557356 18.363973 20.64915 17.912109 20.53125 C 17.460245 20.41345 16.987955 20.053891 16.617188 19.400391 C 16.477671 19.154485 16.372174 18.875949 16.285156 18.587891 L 18.289062 18.587891 L 18.714844 17.587891 L 16.089844 17.587891 C 16.059254 17.256267 16.059155 16.919878 16.087891 16.587891 L 18.388672 16.587891 L 18.814453 15.587891 L 16.275391 15.587891 C 16.363594 15.28816 16.472597 15.000923 16.617188 14.746094 C 16.987955 14.092594 17.460245 13.731081 17.912109 13.613281 C 18.363973 13.495381 18.820056 13.589328 19.285156 13.986328 L 19.666016 14.310547 L 20.314453 13.550781 L 19.933594 13.224609 C 19.59726 12.937409 19.220796 12.742531 18.832031 12.644531 L 18.832031 12.646484 C 18.637649 12.597484 18.440621 12.572266 18.244141 12.572266 z " id="path5617-44-0-3-5-8" style="color:#000000;font-style:normal;font-variant:normal;font-weight:normal;font-stretch:normal;font-size:medium;line-height:normal;font-family:sans-serif;text-indent:0;text-align:start;text-decoration:none;text-decoration-line:none;text-decoration-style:solid;text-decoration-color:#000000;letter-spacing:normal;word-spacing:normal;text-transform:none;direction:ltr;block-progression:tb;writing-mode:lr-tb;baseline-shift:baseline;text-anchor:start;white-space:normal;clip-rule:nonzero;display:inline;overflow:visible;visibility:visible;opacity:1;isolation:auto;mix-blend-mode:normal;color-interpolation:sRGB;color-interpolation-filters:linearRGB;solid-color:#000000;solid-opacity:1;fill:#000000;fill-opacity:1;fill-rule:evenodd;stroke:none;stroke-width:1px;stroke-linecap:butt;stroke-linejoin:miter;stroke-miterlimit:4;stroke-dasharray:none;stroke-dashoffset:0;stroke-opacity:1;color-rendering:auto;image-rendering:auto;shape-rendering:auto;text-rendering:auto;enable-background:accumulate" transform="translate(0,1020.3622)"/></g></svg>