<?xml version="1.0" ?><svg enable-background="new 0 0 100 100" id="Layer_1" version="1.1" viewBox="0 0 100 100" xml:space="preserve" xmlns="http://www.w3.org/2000/svg" xmlns:xlink="http://www.w3.org/1999/xlink"><path d="M80.1,61.8c0.3-0.3,0.6-0.8,0.6-1.3c0-0.4-0.1-0.9-0.3-1.2c1.3-1.1,3.2-3.1,5.2-5.5c3.3-4,5.7-7.5,5.2-7.9  c-0.4-0.4-3.5,2.6-6.8,6.5c-2,2.4-3.6,4.6-4.5,6c-0.2-0.1-0.4-0.1-0.6-0.1c-0.9-0.1-1.7,0.4-2,1.2c-0.2-0.1-0.5-0.2-0.8-0.2  c-0.7-0.7-1.8-1.7-3.4-2.9c-2.6-2-6.2-4.5-10.1-6.9c0.2-2.2,0.3-5,0.3-8.1c0-6.9-0.6-12.5-1.4-12.5s-1.4,5.6-1.4,12.5  c0,2.5,0.1,4.8,0.2,6.7c-5-3.1-9.7-5.7-12.9-7.1c0-0.1,0-0.2,0-0.3c0-1.6-0.9-2.9-2.2-3.6c0.5-3.7,0.8-9.5,0.8-15.7  c0-5.2-0.2-10.1-0.6-13.8c-0.5-4.9-1-6.4-2.1-6.4s-1.7,1.6-2.1,6.4c-0.4,3.7-0.6,8.6-0.6,13.8c0,6.2,0.3,12,0.8,15.7  c-1.4,0.7-2.3,2.1-2.3,3.7c0,0.1,0,0.2,0,0.2c-3.4,1.4-8.6,4.1-13.9,7.2c-4.5,2.6-8.6,5.2-11.6,7.4c-4,2.8-5.1,4.1-4.5,5.1  c0.1,0.3,0.5,0.6,1.1,0.6c2.3,0,10.8-4.3,17.7-8.3c5.1-2.9,9.7-6.3,12.7-8.5C39.8,64,38.4,86,36.8,92H35v7h17v-7h-2.3  c-1.1-4-2-16.7-2.6-28.2c1.4-0.8,2.9-1.5,4.5-2.5c3.5-2.2,6.5-4.2,8.2-5.7c0.1,0.1,0.3,0,0.4,0.1C60,62,58.7,89,57.1,91H57v3h9v-3  h-0.2c-1.5-2-2.5-23.8-2.8-32.8c1.3,0.4,2.9,0.9,4.8,1.3c1,0.8,2.2,1.7,3.4,2.5c2.3,1.6,4.6,3,6.4,4.1c-0.4,7.3-1.1,20-2.1,23H74v2  h9v-2h-1.1C81,86,80.3,74.7,80,67.3c0.4,0.2,0.8,0.3,1.1,0.5c0.2,0.5,0.5,1.1,0.8,1.6c2.3,4.7,4.5,8.2,5.1,8  c0.5-0.3-0.9-4.3-3.2-8.9C82.4,65.6,81,63.2,80.1,61.8z M74.6,60.1c-2.7-1-8.4-4-15.2-8.3c-5.1-3.2-9.7-6.4-12.5-8.7  c0.1-0.1,0.2-0.2,0.2-0.3c0-0.1,0.1-0.1,0.1-0.2c3.3,1.5,8.2,4.3,13.3,7.5C67.7,54.5,72.6,58.2,74.6,60.1z M43.1,36.4  c-0.5-3.6-0.7-9.2-0.7-15.2c0-8.5,0.5-14.7,1-17.3c0.5,2.7,1,8.8,1,17.3c0,6-0.3,11.6-0.7,15.2c-0.1,0-0.3,0-0.4,0  C43.3,36.4,43.2,36.4,43.1,36.4z M42.6,38.2L42.6,38.2C42.6,38.2,42.7,38.2,42.6,38.2c0.2,0,0.3-0.1,0.4-0.1c0,0,0,0,0.1,0  c0.1,0,0.2,0,0.4,0c0,0,0,0,0,0c0.1,0,0.2,0,0.4,0c0,0,0,0,0,0c0.1,0,0.3,0.1,0.4,0.1l0,0c1,0.3,1.7,1.3,1.7,2.3  c0,1.4-1.1,2.5-2.5,2.5c-0.6,0-1.1-0.2-1.6-0.6l0,0c0,0,0,0,0,0c-0.2-0.2-0.4-0.4-0.5-0.6c0,0,0,0,0-0.1c-0.1-0.1-0.1-0.2-0.1-0.3  c0,0,0,0,0,0c0-0.1-0.1-0.2-0.1-0.3c0-0.2-0.1-0.4-0.1-0.6C40.9,39.4,41.6,38.5,42.6,38.2z M27.2,51.2C20.1,55.3,14.3,58,11.6,59  c2-1.8,7.1-5.3,14.5-9.6c5.2-3,10.2-5.6,13.5-7c0,0,0,0.1,0.1,0.1c0,0,0,0,0,0c0,0,0,0.1,0,0.1c0,0.1,0.1,0.1,0.1,0.2  c0,0,0,0.1,0.1,0.1c0,0,0,0,0,0.1C37.1,45.2,32.4,48.2,27.2,51.2z M36.3,94.4L36.3,94.4L36.3,94.4L36.3,94.4z M50,97H37v-3h13.2h0  H50V97z M38.5,92c1.9-8,3.3-36.8,3.8-47.5c0.2,0,0.5,0.2,0.7,0.2c0.5,0,1-0.3,1.5-0.4C44.9,55.1,46.1,84,48,92H38.5z M50.1,59.2  c-1.1,0.7-2.2,1.4-3.2,2.1c-0.4-7-0.6-13.3-0.7-16.5c2.9,2.3,7.4,5.4,12.3,8.4c0.2,0.1,0.3,0.2,0.5,0.3c0,0.1,0,0.2,0,0.3  c0,0.2,0,0.4,0.1,0.5C56.9,55.2,53.6,57,50.1,59.2z M62.9,57c0-0.4,0-0.7,0-1c0,0,0.1-0.1,0.1-0.1c0.2,0.1,0.3,0.2,0.5,0.3  c0.3,0.3,0.7,0.6,1,0.9C64,57,63.4,57,62.9,57z M77.8,62.2c0,0.3,0,0.7,0,1.1c-0.5-0.4-1-0.8-1.6-1.2c0.5-0.1,0.7-0.3,0.8-0.5  c0-0.1,0.1-0.1,0.1-0.2c0.3,0.5,0.5,0.8,1.1,0.9 M79.9,65C79.9,65,79.9,65,79.9,65C79.9,65,79.9,65,79.9,65C79.9,65,79.9,65,79.9,65  z"/></svg>