<?xml version="1.0" ?><svg id="Layer_1" style="enable-background:new 0 0 30 30;" version="1.1" viewBox="0 0 30 30" xml:space="preserve" xmlns="http://www.w3.org/2000/svg" xmlns:xlink="http://www.w3.org/1999/xlink"><g><path d="M27.658,13.625c-0.159-0.321-0.403-0.702-0.879-0.794c-0.192-0.038-0.504-0.061-0.728-0.071c-0.003,0-0.006,0-0.009,0   l-8.724-0.208l-0.841-0.013c-0.054,0.009-0.105,0.037-0.156,0.062c-0.22-0.499-0.655-0.874-1.185-0.999   c0.005-0.061,0.015-0.121,0.015-0.182c-0.001-0.456,0.142-0.8,0.452-1.085c0.235-0.217,0.468-0.603,0.243-1.211   c-0.475-1.275-0.943-2.554-1.412-3.832l-0.56-1.526c-0.196-0.532-0.394-1.064-0.596-1.604l-0.535-1.476   c-0.087-0.237-0.254-0.311-0.345-0.333c-0.152-0.038-0.311,0.007-0.438,0.122C11.7,0.71,11.404,1.043,11.43,1.533   c0.01,0.201,0.063,0.519,0.106,0.745c0.001,0.003,0.001,0.006,0.002,0.008l2.067,9.702c0.001,0.007,0.008,0.01,0.01,0.017   c-0.345,0.314-0.567,0.764-0.583,1.27c-0.108,0.042-0.218,0.085-0.321,0.142c-0.377,0.209-0.729,0.237-1.109,0.089   c-0.302-0.119-0.753-0.154-1.176,0.35c-0.906,1.08-1.817,2.155-2.728,3.23L4.69,20.641c-0.159,0.188-0.146,0.366-0.124,0.456   c0.036,0.147,0.146,0.268,0.299,0.329c0.186,0.075,0.403,0.146,0.634,0.146c0.177,0,0.361-0.042,0.543-0.155   c0.167-0.104,0.414-0.301,0.587-0.445c0.002-0.003,0.005-0.005,0.007-0.007l6.659-5.856l0.295-0.264L12.335,28.91h-2.177   c-0.207,0-0.375,0.168-0.375,0.375s0.168,0.375,0.375,0.375h2.52h4.349h2.388c0.207,0,0.375-0.168,0.375-0.375   s-0.168-0.375-0.375-0.375h-2.045l-1.29-14.454c0.09-0.113,0.169-0.235,0.23-0.368c0.11,0.044,0.221,0.088,0.337,0.117   c0.419,0.105,0.703,0.33,0.895,0.708c0.133,0.262,0.396,0.554,0.903,0.554c0.063,0,0.128-0.004,0.198-0.014   c1.293-0.173,2.586-0.341,3.879-0.508l4.748-0.615c0.24-0.031,0.35-0.171,0.393-0.252C27.704,13.999,27.761,13.834,27.658,13.625z    M15.729,13.332c0,0.567-0.438,1.028-0.976,1.028s-0.976-0.461-0.976-1.028s0.438-1.028,0.976-1.028S15.729,12.765,15.729,13.332z    M12.272,2.134c-0.037-0.195-0.084-0.467-0.093-0.64c-0.002-0.041,0.003-0.081,0.016-0.121l0.075,0.206   c0.161,0.443,0.251,0.692,0.316,0.836l-0.01,0.004L13.73,5.55c0.469,1.279,0.938,2.558,1.413,3.834   c0.09,0.244,0.032,0.325-0.048,0.398c-0.462,0.425-0.696,0.977-0.693,1.639c0,0.036-0.001,0.072-0.004,0.107l-0.126,0.001   L12.272,2.134z M6.145,20.398c-0.149,0.124-0.357,0.292-0.499,0.381c-0.034,0.021-0.072,0.036-0.123,0.04l2.749-3.249   c0.911-1.076,1.822-2.152,2.729-3.233c0.104-0.124,0.174-0.157,0.233-0.157c0.035,0,0.065,0.012,0.095,0.023   c0.588,0.229,1.174,0.186,1.746-0.131c0.023-0.013,0.048-0.025,0.072-0.036l0.07,0.135L6.145,20.398z M13.088,28.91l1.238-13.862   c0.137,0.036,0.279,0.062,0.427,0.062c0.219,0,0.427-0.047,0.62-0.124l1.243,13.924H13.088z M22.425,14.201   c-1.294,0.167-2.589,0.335-3.883,0.509c-0.228,0.03-0.282-0.037-0.333-0.136c-0.288-0.57-0.753-0.939-1.381-1.096   c-0.031-0.008-0.063-0.017-0.093-0.028l0.035-0.157l9.251,0.217c0.189,0.009,0.451,0.026,0.614,0.058   c0.047,0.009,0.091,0.031,0.135,0.069L22.425,14.201z"/><path d="M18.497,1.779c2.186,0.766,4.094,2.178,5.517,4.083c0.074,0.099,0.187,0.15,0.301,0.15c0.078,0,0.157-0.024,0.225-0.075   c0.166-0.124,0.2-0.359,0.076-0.525c-1.513-2.025-3.543-3.526-5.87-4.342c-0.195-0.068-0.409,0.035-0.478,0.23   C18.198,1.497,18.302,1.71,18.497,1.779z"/><path d="M3.034,13.332c0-3.578,1.504-6.962,4.126-9.284C7.315,3.911,7.33,3.673,7.192,3.519C7.054,3.363,6.817,3.349,6.663,3.486   C3.88,5.951,2.284,9.539,2.284,13.332c0,1.424,0.222,2.826,0.66,4.164c0.052,0.158,0.199,0.259,0.356,0.259   c0.039,0,0.078-0.006,0.117-0.019c0.197-0.064,0.304-0.276,0.24-0.473C3.244,16,3.034,14.677,3.034,13.332z"/><path d="M11.804,25.893c0.167,0,0.318-0.111,0.362-0.28c0.052-0.2-0.068-0.405-0.268-0.458c-1.811-0.471-3.51-1.404-4.914-2.698   c-0.152-0.14-0.39-0.13-0.53,0.021c-0.14,0.152-0.13,0.39,0.021,0.529c1.495,1.378,3.304,2.371,5.233,2.874   C11.74,25.889,11.772,25.893,11.804,25.893z"/><path d="M26.029,17.895c-0.187-0.078-0.41,0.013-0.488,0.205c-1.074,2.624-3.012,4.786-5.457,6.088   c-0.184,0.098-0.253,0.324-0.155,0.507c0.067,0.127,0.197,0.199,0.331,0.199c0.06,0,0.12-0.014,0.176-0.044   c2.601-1.384,4.66-3.681,5.799-6.467C26.313,18.191,26.222,17.973,26.029,17.895z"/><path d="M17.474,4.128c2.099,0.67,3.906,2.105,5.09,4.04c0.071,0.116,0.194,0.179,0.32,0.179c0.067,0,0.135-0.018,0.195-0.055   c0.177-0.108,0.232-0.339,0.125-0.516c-1.278-2.088-3.232-3.638-5.502-4.363c-0.198-0.062-0.409,0.046-0.472,0.243   S17.276,4.064,17.474,4.128z"/><path d="M4.815,14.526c0.021,0.191,0.184,0.333,0.372,0.333c0.014,0,0.028,0,0.042-0.002c0.206-0.022,0.354-0.208,0.331-0.414   c-0.041-0.366-0.061-0.74-0.061-1.112c0-2.743,1.13-5.364,3.101-7.191C8.751,6,8.761,5.763,8.62,5.611   C8.479,5.459,8.242,5.45,8.09,5.591c-2.123,1.968-3.341,4.79-3.341,7.741C4.749,13.731,4.771,14.133,4.815,14.526z"/><path d="M11.77,23.219c0.157,0,0.303-0.099,0.355-0.255c0.066-0.196-0.04-0.409-0.235-0.476c-1.22-0.412-2.328-1.074-3.293-1.97   c-0.151-0.14-0.389-0.133-0.53,0.021c-0.141,0.151-0.132,0.389,0.02,0.53c1.043,0.967,2.242,1.684,3.563,2.13   C11.69,23.213,11.73,23.219,11.77,23.219z"/><path d="M24.208,16.729c0.065-0.196-0.04-0.409-0.236-0.475c-0.202-0.069-0.409,0.041-0.475,0.236   c-0.717,2.145-2.147,3.965-4.03,5.126c-0.176,0.109-0.23,0.34-0.122,0.517c0.071,0.114,0.194,0.178,0.319,0.178   c0.067,0,0.136-0.018,0.197-0.056C21.893,21.002,23.437,19.039,24.208,16.729z"/><path d="M21.468,28.91h-0.976c-0.207,0-0.375,0.168-0.375,0.375s0.168,0.375,0.375,0.375h0.976c0.207,0,0.375-0.168,0.375-0.375   S21.675,28.91,21.468,28.91z"/></g></svg>